<svg width="30" height="49" viewBox="0 0 30 49" fill="none" xmlns="http://www.w3.org/2000/svg">
<path d="M19.4189 53C17.9926 52.6159 16.0452 51.985 13.851 50.8877C8.69461 48.3364 4.8273 44.633 3.0445 42.1092C-1.67307 35.4705 -0.850235 24.2231 5.04673 14.073C4.05933 18.2702 5.40329 22.0833 8.03635 23.4824C9.29802 24.1408 11.2454 24.0036 11.6568 24.0036C12.3425 23.9762 13.7687 23.8939 15.3595 23.0983C17.7458 21.8913 18.8154 19.8887 19.1446 19.2578C20.132 17.3923 20.1594 15.7464 20.1868 13.8535C20.2143 12.8111 20.1868 10.1775 19.0897 6.99534C18.02 3.75828 16.3195 1.45393 15.0578 0C16.8955 0.90528 26.934 6.22723 29.1283 14.8137C29.4574 16.103 29.7042 17.6392 29.6768 19.3949C29.7865 25.1284 28.3329 28.7495 27.2083 30.8344C26.3581 32.3706 24.7673 34.7298 23.8347 36.1289C22.5182 38.104 21.3662 39.6951 20.5434 40.7924C19.9126 41.8349 18.8703 43.8649 18.5686 46.6082C18.2669 49.516 18.9526 51.8204 19.4189 53Z" fill="#FF5555"/>
</svg>
